<svg width="183" height="53" viewBox="0 0 183 53" fill="none" xmlns="http://www.w3.org/2000/svg">
<path d="M4.74 32V23.75H1.02V21.5H11.07V23.75H7.29V32H4.74ZM19.0709 32.15C18.1709 32.15 17.3459 32.015 16.5959 31.745C15.8559 31.465 15.2109 31.08 14.6609 30.59C14.1209 30.1 13.7009 29.525 13.4009 28.865C13.1009 28.195 12.9509 27.475 12.9509 26.705C12.9509 25.925 13.1009 25.205 13.4009 24.545C13.7009 23.885 14.1259 23.31 14.6759 22.82C15.2259 22.33 15.8709 21.95 16.6109 21.68C17.3509 21.4 18.1659 21.26 19.0559 21.26C19.9559 21.26 20.7759 21.395 21.5159 21.665C22.2659 21.935 22.9109 22.32 23.4509 22.82C24.0009 23.31 24.4209 23.885 24.7109 24.545C25.0109 25.205 25.1609 25.925 25.1609 26.705C25.1609 27.485 25.0109 28.205 24.7109 28.865C24.4209 29.525 24.0009 30.105 23.4509 30.605C22.9109 31.095 22.2659 31.475 21.5159 31.745C20.7759 32.015 19.9609 32.15 19.0709 32.15ZM19.0709 29.75C19.5809 29.75 20.0509 29.675 20.4809 29.525C20.9109 29.365 21.2809 29.15 21.5909 28.88C21.9009 28.6 22.1409 28.275 22.3109 27.905C22.4809 27.535 22.5659 27.135 22.5659 26.705C22.5659 26.275 22.4809 25.875 22.3109 25.505C22.1409 25.135 21.9009 24.815 21.5909 24.545C21.2809 24.265 20.9059 24.05 20.4659 23.9C20.0359 23.74 19.5709 23.66 19.0709 23.66C18.5609 23.66 18.0909 23.74 17.6609 23.9C17.2309 24.05 16.8559 24.26 16.5359 24.53C16.2159 24.8 15.9709 25.125 15.8009 25.505C15.6409 25.875 15.5609 26.275 15.5609 26.705C15.5609 27.135 15.6409 27.54 15.8009 27.92C15.9709 28.29 16.2159 28.61 16.5359 28.88C16.8559 29.15 17.2309 29.365 17.6609 29.525C18.0909 29.675 18.5609 29.75 19.0709 29.75ZM28.524 32V21.5H30.894L37.569 29L37.164 28.925C37.104 28.565 37.059 28.225 37.029 27.905C36.999 27.575 36.969 27.255 36.939 26.945C36.919 26.635 36.899 26.33 36.879 26.03C36.869 25.73 36.864 25.42 36.864 25.1C36.864 24.78 36.864 24.445 36.864 24.095V21.5H39.339V32H36.939L30.024 24.26L30.699 24.365C30.739 24.655 30.774 24.93 30.804 25.19C30.834 25.44 30.859 25.69 30.879 25.94C30.909 26.19 30.934 26.445 30.954 26.705C30.974 26.955 30.984 27.23 30.984 27.53C30.994 27.82 30.999 28.14 30.999 28.49V32H28.524ZM46.6622 32V27.065L46.8722 28.04L41.8472 21.5H44.9072L48.6272 26.51L47.3222 26.495L50.8472 21.5H53.7422L49.0922 27.89L49.2272 26.945V32H46.6622ZM53.5823 32L58.3223 21.5H60.6173L65.3423 32H62.7323L60.1223 26.165C60.0223 25.955 59.9273 25.745 59.8373 25.535C59.7573 25.315 59.6773 25.1 59.5973 24.89C59.5173 24.67 59.4423 24.455 59.3723 24.245C59.3023 24.025 59.2373 23.815 59.1773 23.615L59.7023 23.6C59.6323 23.83 59.5623 24.05 59.4923 24.26C59.4223 24.47 59.3423 24.685 59.2523 24.905C59.1723 25.115 59.0873 25.325 58.9973 25.535C58.9073 25.745 58.8173 25.96 58.7273 26.18L56.1323 32H53.5823ZM55.8023 30.08L56.6123 28.16H62.2673L62.8073 30.08H55.8023ZM79.8619 32.15C78.9619 32.15 78.1369 32.015 77.3869 31.745C76.6469 31.465 76.0019 31.08 75.4519 30.59C74.9119 30.1 74.4919 29.525 74.1919 28.865C73.8919 28.195 73.7419 27.475 73.7419 26.705C73.7419 25.925 73.8919 25.205 74.1919 24.545C74.4919 23.885 74.9169 23.31 75.4669 22.82C76.0169 22.33 76.6619 21.95 77.4019 21.68C78.1419 21.4 78.9569 21.26 79.8469 21.26C80.7469 21.26 81.5669 21.395 82.3069 21.665C83.0569 21.935 83.7019 22.32 84.2419 22.82C84.7919 23.31 85.2119 23.885 85.5019 24.545C85.8019 25.205 85.9519 25.925 85.9519 26.705C85.9519 27.485 85.8019 28.205 85.5019 28.865C85.2119 29.525 84.7919 30.105 84.2419 30.605C83.7019 31.095 83.0569 31.475 82.3069 31.745C81.5669 32.015 80.7519 32.15 79.8619 32.15ZM79.8619 29.75C80.3719 29.75 80.8419 29.675 81.2719 29.525C81.7019 29.365 82.0719 29.15 82.3819 28.88C82.6919 28.6 82.9319 28.275 83.1019 27.905C83.2719 27.535 83.3569 27.135 83.3569 26.705C83.3569 26.275 83.2719 25.875 83.1019 25.505C82.9319 25.135 82.6919 24.815 82.3819 24.545C82.0719 24.265 81.6969 24.05 81.2569 23.9C80.8269 23.74 80.3619 23.66 79.8619 23.66C79.3519 23.66 78.8819 23.74 78.4519 23.9C78.0219 24.05 77.6469 24.26 77.3269 24.53C77.0069 24.8 76.7619 25.125 76.5919 25.505C76.4319 25.875 76.3519 26.275 76.3519 26.705C76.3519 27.135 76.4319 27.54 76.5919 27.92C76.7619 28.29 77.0069 28.61 77.3269 28.88C77.6469 29.15 78.0219 29.365 78.4519 29.525C78.8819 29.675 79.3519 29.75 79.8619 29.75ZM89.315 32V21.5H94.79C95.56 21.5 96.23 21.64 96.8 21.92C97.37 22.2 97.81 22.595 98.12 23.105C98.44 23.605 98.6 24.19 98.6 24.86C98.6 25.52 98.43 26.12 98.09 26.66C97.76 27.19 97.305 27.605 96.725 27.905C96.155 28.205 95.515 28.355 94.805 28.355H91.745V32H89.315ZM96.2 32L93.02 27.26L95.66 26.885L99.14 32H96.2ZM91.745 26.405H94.535C94.825 26.405 95.08 26.345 95.3 26.225C95.53 26.105 95.71 25.94 95.84 25.73C95.98 25.51 96.05 25.26 96.05 24.98C96.05 24.7 95.975 24.46 95.825 24.26C95.685 24.06 95.495 23.905 95.255 23.795C95.015 23.685 94.735 23.63 94.415 23.63H91.745V26.405ZM105.022 32V27.065L105.232 28.04L100.207 21.5H103.267L106.987 26.51L105.682 26.495L109.207 21.5H112.102L107.452 27.89L107.587 26.945V32H105.022ZM114.613 32V21.5H116.983L123.658 29L123.253 28.925C123.193 28.565 123.148 28.225 123.118 27.905C123.088 27.575 123.058 27.255 123.028 26.945C123.008 26.635 122.988 26.33 122.968 26.03C122.958 25.73 122.953 25.42 122.953 25.1C122.953 24.78 122.953 24.445 122.953 24.095V21.5H125.428V32H123.028L116.113 24.26L116.788 24.365C116.828 24.655 116.863 24.93 116.893 25.19C116.923 25.44 116.948 25.69 116.968 25.94C116.998 26.19 117.023 26.445 117.043 26.705C117.063 26.955 117.073 27.23 117.073 27.53C117.083 27.82 117.088 28.14 117.088 28.49V32H114.613ZM129.481 32V21.5H137.971V23.675H131.956V29.825H138.121V32H129.481ZM130.771 27.695V25.625H137.296V27.695H130.771ZM141.756 32V21.5H144.126L150.801 29L150.396 28.925C150.336 28.565 150.291 28.225 150.261 27.905C150.231 27.575 150.201 27.255 150.171 26.945C150.151 26.635 150.131 26.33 150.111 26.03C150.101 25.73 150.096 25.42 150.096 25.1C150.096 24.78 150.096 24.445 150.096 24.095V21.5H152.571V32H150.171L143.256 24.26L143.931 24.365C143.971 24.655 144.006 24.93 144.036 25.19C144.066 25.44 144.091 25.69 144.111 25.94C144.141 26.19 144.166 26.445 144.186 26.705C144.206 26.955 144.216 27.23 144.216 27.53C144.226 27.82 144.231 28.14 144.231 28.49V32H141.756ZM158.38 29.24L157.765 27.08L164.23 21.5H167.395L158.38 29.24ZM156.625 32V21.5H159.175V32H156.625ZM164.455 32L160.24 26.69L161.845 25.07L167.5 32H164.455ZM175.296 32.15C174.396 32.15 173.571 32.015 172.821 31.745C172.081 31.465 171.436 31.08 170.886 30.59C170.346 30.1 169.926 29.525 169.626 28.865C169.326 28.195 169.176 27.475 169.176 26.705C169.176 25.925 169.326 25.205 169.626 24.545C169.926 23.885 170.351 23.31 170.901 22.82C171.451 22.33 172.096 21.95 172.836 21.68C173.576 21.4 174.391 21.26 175.281 21.26C176.181 21.26 177.001 21.395 177.741 21.665C178.491 21.935 179.136 22.32 179.676 22.82C180.226 23.31 180.646 23.885 180.936 24.545C181.236 25.205 181.386 25.925 181.386 26.705C181.386 27.485 181.236 28.205 180.936 28.865C180.646 29.525 180.226 30.105 179.676 30.605C179.136 31.095 178.491 31.475 177.741 31.745C177.001 32.015 176.186 32.15 175.296 32.15ZM175.296 29.75C175.806 29.75 176.276 29.675 176.706 29.525C177.136 29.365 177.506 29.15 177.816 28.88C178.126 28.6 178.366 28.275 178.536 27.905C178.706 27.535 178.791 27.135 178.791 26.705C178.791 26.275 178.706 25.875 178.536 25.505C178.366 25.135 178.126 24.815 177.816 24.545C177.506 24.265 177.131 24.05 176.691 23.9C176.261 23.74 175.796 23.66 175.296 23.66C174.786 23.66 174.316 23.74 173.886 23.9C173.456 24.05 173.081 24.26 172.761 24.53C172.441 24.8 172.196 25.125 172.026 25.505C171.866 25.875 171.786 26.275 171.786 26.705C171.786 27.135 171.866 27.54 172.026 27.92C172.196 28.29 172.441 28.61 172.761 28.88C173.081 29.15 173.456 29.365 173.886 29.525C174.316 29.675 174.786 29.75 175.296 29.75Z" fill="black"/>
</svg>
